<?xml version="1.0" encoding="utf-8"?>
<!DOCTYPE svg PUBLIC "-//W3C//DTD SVG 1.0//EN" "http://www.w3.org/TR/2001/REC-SVG-20010904/DTD/svg10.dtd">
<svg version="1.0" xmlns="http://www.w3.org/2000/svg" width="632px" height="250px" viewBox="0 0 632 250" preserveAspectRatio="xMidYMid meet">
 <g fill="#cd2027">
  <path d="M292.9 177.4 c-11.8 -16.9 -21.8 -30.9 -22.4 -31 -0.5 -0.2 -5 5.5 -9.8 12.6 l-8.8 13 -9.5 0 -9.6 0 1.8 -2.7 c16.9 -25.8 26.5 -41.7 25.9 -43.1 -0.3 -0.9 -9 -15.1 -19.2 -31.4 l-18.5 -29.8 -64.9 0 -65 0 0.3 44.1 c0.3 49.9 -0.2 46.9 8.5 46.9 l4.3 0 0 8 0 8 -5.2 0 c-10.2 0 -18 -3.7 -21.6 -10.3 -1.5 -2.9 -1.7 -7.7 -2 -49.9 l-0.3 -46.8 -21.4 0 c-25.4 0 -24.5 -0.4 -24.5 11.7 l0 7.3 8.5 0 8.5 0 0 6.5 0 6.5 -8.5 0 -8.5 0 0 37.5 0 37.5 -8 0 -8 0 0 -37.5 0 -37.5 -4.5 0 -4.5 0 0 -6.5 0 -6.5 4.4 0 4.4 0 0.4 -10.3 c0.5 -13.3 2.7 -17.9 10.7 -22 l5.5 -2.7 100.4 0.2 100.5 0.3 18.6 29.7 c10.2 16.3 18.9 29.9 19.2 30.3 0.3 0.3 4.4 -5.3 9 -12.4 l8.4 -13 9.7 0 9.8 -0.1 -14 21.1 c-7.7 11.5 -14 21.5 -14 22 0 0.6 9.8 15.5 21.7 33 l21.7 32 9.6 -0.3 9.5 -0.3 0.3 -53.7 0.2 -53.8 8 0 8 0 0 4.6 0 4.6 3.8 -3 c5.7 -4.6 10.9 -6.4 18.4 -6.5 12.1 0 21.8 7 25.9 18.8 2.2 6.3 1.9 46.5 -0.4 52.3 -2.5 6.4 -6.9 11.4 -12.9 14.7 -4.4 2.4 -6.5 2.9 -12.3 2.9 -7.4 0.1 -12.1 -1.7 -19.2 -7.2 l-3.3 -2.4 0 14.6 0 14.6 98 0 c107 0 103.3 0.2 106.3 -5.7 0.8 -1.5 2.4 -6.2 3.6 -10.3 l2.2 -7.5 -14.5 -40.5 c-7.9 -22.3 -14.7 -41.3 -15.1 -42.3 -0.6 -1.5 0.1 -1.7 7.8 -1.7 l8.6 0 9.1 28.3 c5 15.5 9.5 29.3 9.9 30.7 1.2 3.9 2.4 2.7 4.8 -4.7 1.2 -3.7 5.6 -17.5 9.8 -30.5 l7.7 -23.8 8.4 0 c4.6 0 8.4 0.1 8.4 0.3 0 0.7 -35.3 103.9 -37.1 108.3 -2.3 5.9 -6.7 10.5 -12.4 13.1 -3.8 1.7 -11 1.8 -126.6 2.1 l-122.6 0.2 -21.4 -30.6z m90.1 -23.2 c2.1 -1 4.5 -3.4 6 -6.2 2.4 -4.3 2.5 -5.3 2.5 -20 0 -17.2 -1.1 -21.2 -6.8 -25.4 -3.9 -2.9 -14.9 -3 -19 -0.2 -5.4 3.7 -7.1 8.7 -7.5 22.9 -0.6 18.3 1.9 26.1 9.2 29.3 4.3 1.9 11.5 1.7 15.6 -0.4z"/>
  <path d="M162.7 172 c-10.1 -2.6 -17.5 -8.2 -22 -16.8 -4.9 -9.5 -6 -15.6 -5.5 -30.3 0.6 -13.8 2.5 -20.6 7.7 -28.3 11.4 -16.5 36.9 -17.4 51.1 -1.9 6.7 7.3 9 14.7 9 28.9 l0 10.4 -26 0 -26 0 0 3.5 c0 2 0.7 5.2 1.5 7.3 5.5 13.1 21.6 16.2 34.2 6.6 l3.4 -2.6 5.2 4.8 c2.9 2.7 5.3 5.2 5.5 5.5 0.5 1.2 -8.4 7.8 -14.1 10.5 -6.4 2.9 -17.6 4 -24 2.4z m24.1 -55.4 c-1.4 -11.8 -10.4 -19.2 -21.2 -17.2 -7.8 1.5 -13.2 7.7 -14.3 16.5 l-0.6 5.1 18.3 0 18.3 0 -0.5 -4.4z"/>
  <path d="M461.5 171.5 c-2.7 -0.8 -5.3 -1.4 -5.6 -1.5 -1.4 -0.1 -10.1 -8.5 -11.4 -11.1 -6.6 -12.6 -2.3 -28.3 9.5 -34.9 4.2 -2.3 5.6 -2.5 21.3 -2.8 l16.7 -0.4 0 -7.4 c0 -6.5 -0.3 -7.8 -2.4 -9.9 -5.8 -5.8 -23.2 -6 -29.2 -0.4 l-2.3 2.2 -5.6 -4.3 c-3.1 -2.4 -5.8 -4.6 -6 -5.1 -0.3 -0.4 1.6 -2.5 4.1 -4.8 6.3 -5.5 12.8 -7.6 23.9 -7.5 18.1 0.1 29.1 6.3 32.5 18.3 0.6 2.1 1 17.7 1 36.9 l0 33.2 -8 0 -8 0 0 -4.2 0 -4.3 -2.3 2.7 c-1.2 1.4 -3.7 3.4 -5.6 4.3 -4.6 2.3 -16.4 2.9 -22.6 1z m25.9 -16.9 c3.6 -2.3 4.6 -5.4 4.6 -13.7 l0 -6.9 -9.9 0 c-12.1 0 -19.8 1.4 -22.7 4.1 -5.9 5.5 -2.4 15.8 6.1 18.2 4.4 1.3 19.2 0.1 21.9 -1.7z"/>
 </g>
 <g fill="#3e3e3e">
  <path d="M475.6 69.8 c0.6 -4.6 2.4 -25.8 2.4 -28.5 0 -2 0.5 -2.3 3.5 -2.3 3.5 0 3.5 0 3 3.7 -2.9 19.5 -3.5 25.8 -2.2 24.2 0.2 -0.2 3.4 -5.8 7.1 -12.5 8.6 -15.6 8.6 -15.6 11.9 -15.2 2.7 0.3 2.7 0.3 -7.3 17.1 l-10.1 16.7 -4.4 0 c-4.4 0 -4.4 0 -3.9 -3.2z"/>
  <path d="M499.5 71.7 c-2.4 -1.8 -1.7 -8.4 1.8 -16 3.2 -7.1 6.3 -9.1 13.9 -9.2 4.8 0 6.2 0.4 7.4 2 2 2.7 1 7.3 -2.1 10.5 -2.2 2.2 -3.4 2.5 -9.1 2.5 -6 0 -6.5 0.2 -7.1 2.3 -0.8 3.5 0.9 4.4 7.5 4 4.9 -0.2 5.9 0 5.4 1.2 -0.2 0.8 -1.2 2.1 -2 2.8 -2.1 1.6 -13.3 1.6 -15.7 -0.1z m15.6 -13.7 c1.1 -0.6 1.9 -2.1 1.9 -3.5 0 -2.2 -0.5 -2.5 -3.4 -2.5 -2.5 0 -4 0.7 -5.5 2.6 -1.2 1.5 -2.1 3.1 -2.1 3.5 0 1.2 6.7 1.1 9.1 -0.1z"/>
  <path d="M522 72.3 c0 -0.5 1.8 -6.3 4.1 -13 3.7 -11.2 4.3 -12.3 6.5 -12.3 1.3 0 2.4 0.4 2.4 0.9 0 0.5 1.7 0.3 3.8 -0.4 2 -0.7 3.8 -1.2 4 -1 0.1 0.1 -0.2 1.4 -0.7 2.9 -0.7 1.6 -1.8 2.6 -3.1 2.6 -3.3 0 -5.7 3.4 -8.6 12.4 -2.6 8.1 -3 8.6 -5.6 8.6 -1.5 0 -2.8 -0.3 -2.8 -0.7z"/>
  <path d="M541.5 71.7 c-1.4 -1.1 -1.7 -2.3 -1.3 -5.8 0.7 -6.3 4.6 -14.6 7.9 -17 3.6 -2.5 11.5 -3.4 14.9 -1.7 3.2 1.7 3.6 4.5 1.4 11.1 -2.4 7.5 -4.9 11.3 -8.8 13.1 -4.1 1.9 -11.6 2.1 -14.1 0.3z m12.8 -5.2 c2.2 -2.1 4.9 -9.8 4.5 -12.6 -0.4 -3.2 -4.9 -3.8 -7.6 -1.1 -2.3 2.3 -5.6 11.7 -4.8 13.7 0.7 1.9 6 1.9 7.9 0z"/>
  <path d="M568 71.5 c-1 -1.2 -0.6 -3.2 1.8 -10.5 2.5 -7.4 2.8 -9 1.5 -9 -1 0 -1.3 -0.6 -0.9 -1.6 0.3 -0.9 0.6 -2 0.6 -2.5 0 -0.5 0.8 -0.9 1.8 -0.9 1.1 0 2.4 -1.3 3.3 -3.3 1 -2.3 2.2 -3.3 4.2 -3.5 2.5 -0.3 2.6 -0.2 1.7 2.3 -1.4 3.8 -1.3 4.5 1.1 4.5 1.5 0 1.9 0.4 1.5 1.6 -0.3 0.9 -0.6 1.9 -0.6 2.4 0 0.5 -1.2 1 -2.7 1.2 -2.3 0.3 -2.9 1.2 -5 7.2 -2.8 8.5 -2.8 8.6 -0.2 8.6 1.5 0 1.9 0.4 1.5 1.6 -0.3 0.9 -0.6 2 -0.6 2.5 0 1.5 -7.6 1 -9 -0.6z"/>
  <path d="M584.8 71.9 c-2.7 -1.5 -2.3 -7.9 1.1 -15.3 3.3 -7.2 6.2 -9.6 12.4 -10.3 8.7 -1 12.5 3.2 9.2 10.1 -1.4 2.8 -2.6 3.8 -5.8 4.7 -2.3 0.6 -5.8 0.8 -7.9 0.5 -3.4 -0.6 -3.8 -0.4 -4.4 2 -0.9 3.7 0.6 4.6 7.4 4.2 4.9 -0.2 5.9 0 5.4 1.2 -0.2 0.8 -1.2 2.1 -2 2.8 -1.9 1.4 -13 1.6 -15.4 0.1z m15.3 -13.9 c1.1 -0.6 1.9 -2.1 1.9 -3.5 0 -2.2 -0.5 -2.5 -3.4 -2.5 -2.5 0 -4 0.7 -5.5 2.6 -1.2 1.5 -2.1 3.1 -2.1 3.5 0 1.2 6.7 1.1 9.1 -0.1z"/>
  <path d="M607 72.3 c0 -0.5 2.5 -8.1 5.7 -17 5.5 -15.8 5.8 -16.3 8.5 -16.3 1.5 0 2.8 0.3 2.8 0.8 0 0.4 -2.6 8 -5.7 17 -5.6 15.7 -5.9 16.2 -8.5 16.2 -1.6 0 -2.8 -0.3 -2.8 -0.7z"/>
 </g>
</svg>