<svg version="1.1" id="Layer_1" xmlns="http://www.w3.org/2000/svg" xmlns:xlink="http://www.w3.org/1999/xlink" x="0px" y="0px"
	 width="100%" viewBox="0 0 1500 637" enable-background="new 0 0 1500 637" xml:space="preserve">
<path fill="none" opacity="0.000000" stroke="none" 
	d="
M1034.000000,638.000000 
	C689.373535,638.000000 345.247040,638.000000 1.060280,638.000000 
	C1.060280,425.731659 1.060280,213.463303 1.060280,1.097470 
	C500.876617,1.097470 1000.753235,1.097470 1500.814941,1.097470 
	C1500.814941,213.333206 1500.814941,425.666595 1500.814941,638.000000 
	C1345.463013,638.000000 1189.981567,638.000000 1034.000000,638.000000 
M262.956238,179.027695 
	C280.609650,179.018356 298.263245,178.962173 315.916199,179.048370 
	C318.675171,179.061844 320.400238,178.428223 321.801910,175.762344 
	C324.922333,169.827759 328.556091,164.165283 331.892670,158.341492 
	C334.692841,153.453903 337.368439,148.494965 340.409912,143.007034 
	C306.883698,143.007034 274.251373,142.978989 241.619797,143.119919 
	C240.438858,143.125015 238.854080,144.548386 238.154938,145.725143 
	C233.723206,153.184128 229.513657,160.774643 225.182892,168.294174 
	C215.787781,184.606949 206.363144,200.902725 196.951797,217.206161 
	C187.701584,233.230515 178.454895,249.256912 169.202957,265.280273 
	C159.789963,281.582581 150.692413,298.080780 140.773209,314.069153 
	C137.557114,319.253021 138.095627,322.605194 140.970078,327.490234 
	C154.587357,350.632324 167.694183,374.073975 181.113571,397.333496 
	C196.987686,424.847748 212.993622,452.285950 228.947205,479.754333 
	C232.662674,486.151489 236.397446,492.537415 240.462570,499.510437 
	C243.330872,494.580688 245.760025,490.522125 248.076035,486.399994 
	C252.386627,478.727814 256.631317,471.018616 261.512390,462.913788 
	C265.029449,456.842773 268.552002,450.774963 272.062500,444.700165 
	C281.295959,428.721893 290.515442,412.735565 299.756866,396.761963 
	C309.159485,380.509674 318.584412,364.270294 327.994507,348.022308 
	C337.404388,331.774689 346.819763,315.530212 356.211121,299.271881 
	C366.500336,281.459137 376.733826,263.614105 387.051971,245.818146 
	C393.028748,235.509842 399.124420,225.270477 405.750427,215.365189 
	C410.848145,224.310944 415.930237,233.265671 421.046570,242.200775 
	C435.431335,267.322266 449.871674,292.412262 464.126495,317.607269 
	C465.037659,319.217743 465.349609,322.007355 464.577728,323.579346 
	C461.770966,329.295502 458.403656,334.738037 455.212952,340.263702 
	C445.809509,356.548676 436.440582,372.853882 426.959198,389.093475 
	C419.717651,401.496735 412.325562,413.812134 404.364746,425.841705 
	C394.792175,409.448608 385.219635,393.055481 375.228546,375.945587 
	C368.706207,387.151306 363.039093,397.421265 356.806274,407.335541 
	C354.284302,411.347137 355.357452,414.383118 357.352783,417.749817 
	C359.265503,420.977112 361.206207,424.187836 363.110260,427.420197 
	C370.069214,439.234009 377.017944,451.053802 383.041779,462.973022 
	C366.718903,462.982025 350.381561,463.393005 334.080048,462.807343 
	C327.308044,462.564056 323.282074,464.466217 320.971680,470.754303 
	C320.085449,473.166321 318.299805,475.238525 317.004181,477.511261 
	C313.056000,484.437164 309.146851,491.385284 304.840668,499.000000 
	C307.477936,499.000000 309.108643,499.000000 310.739349,499.000000 
	C340.554260,499.000000 370.370178,498.877869 400.182953,499.128845 
	C404.768463,499.167419 406.823090,497.274170 408.808990,493.668488 
	C415.602295,481.334564 422.620636,469.123535 429.633942,456.912079 
	C439.091034,440.445526 448.602814,424.010254 458.128845,407.583496 
	C467.493683,391.434692 476.930023,375.327362 486.289001,359.175232 
	C493.103210,347.414948 499.895203,335.640839 506.543274,323.786560 
	C507.307007,322.424805 507.834473,320.101990 507.193695,318.913727 
	C502.532410,310.269135 497.570587,301.785522 492.652954,293.280365 
	C479.377045,270.319458 466.026398,247.401581 452.798523,224.413055 
	C439.404053,201.135010 426.149261,177.776581 412.762177,154.494232 
	C410.457886,150.486694 407.798767,146.683167 404.801971,142.001892 
	C397.760925,154.649902 391.242035,166.359879 384.154816,178.410263 
	C381.418579,183.028458 378.627838,187.615356 375.955078,192.270004 
	C360.268036,219.589218 344.678192,246.964462 328.920563,274.242859 
	C312.348114,302.931854 295.617493,331.529449 278.968353,360.174194 
	C266.024628,382.443756 253.099838,404.724304 240.010254,426.288025 
	C235.308655,418.066223 230.633865,409.828979 225.899536,401.626068 
	C217.559814,387.176331 209.169739,372.755707 200.827316,358.307526 
	C194.123093,346.696533 187.390442,335.100586 180.865417,323.389282 
	C180.088593,321.994965 179.889465,319.611664 180.545212,318.213196 
	C182.410721,314.234650 184.863358,310.532135 187.073639,306.714447 
	C204.772629,276.143921 222.469025,245.571899 240.780243,215.296692 
	C250.348663,231.645950 259.917084,247.995209 269.912964,265.074829 
	C276.067535,254.167725 281.152374,244.083618 287.314728,234.707718 
	C290.207611,230.306244 289.967255,227.146271 287.609711,223.127167 
	C279.026611,208.494827 270.546478,193.802078 262.956238,179.027695 
M1157.998291,396.831207 
	C1158.433594,400.059875 1158.868896,403.288544 1159.323486,406.660156 
	C1166.862183,406.660156 1174.244751,406.660156 1181.618774,406.660156 
	C1181.618774,335.977417 1181.618774,265.635162 1181.618774,195.289032 
	C1172.647705,195.289032 1164.060913,195.289032 1155.497681,195.289032 
	C1155.497681,220.467499 1155.497681,245.358307 1155.497681,269.904816 
	C1149.894409,266.278015 1144.551025,262.138062 1138.628540,259.143005 
	C1129.333740,254.442596 1119.158081,253.969284 1108.826660,253.887802 
	C1083.227539,253.685959 1063.230713,269.868195 1054.995361,292.756195 
	C1046.646973,315.958557 1047.016357,339.672668 1052.308228,363.309113 
	C1055.745117,378.660614 1063.884277,391.515503 1077.160156,400.538818 
	C1084.891479,405.793640 1093.623779,407.998749 1102.899780,409.222748 
	C1118.515137,411.283142 1132.944702,408.697021 1146.155640,400.198120 
	C1149.928101,397.771179 1153.114502,394.432922 1156.686523,391.413727 
	C1157.189697,393.186157 1157.590454,394.597626 1157.998291,396.831207 
M848.909729,399.995728 
	C849.421936,391.783356 849.934204,383.570984 850.476318,374.880096 
	C848.209534,375.482758 847.106934,375.727142 846.038452,376.076233 
	C845.261475,376.330139 844.545044,376.764282 843.775513,377.047028 
	C827.668823,382.965271 811.376282,387.065063 793.876709,385.133331 
	C778.559875,383.442535 767.665649,375.908936 761.235596,362.278534 
	C757.721680,354.829987 755.446716,346.786102 756.274841,337.830383 
	C789.722046,337.830383 822.635254,337.830383 856.885986,337.830383 
	C855.900757,325.185974 855.850769,312.902649 853.801880,300.962372 
	C850.692139,282.839905 840.636963,268.740479 824.217896,260.194153 
	C809.629700,252.600769 793.809387,252.262283 777.984253,255.566483 
	C763.963562,258.493958 752.546814,265.800049 744.012756,277.459442 
	C735.074829,289.670654 730.438843,303.295807 728.828186,318.363373 
	C726.977112,335.679474 727.741760,352.590546 734.122864,368.850281 
	C741.019714,386.424286 753.317627,398.858734 771.371216,405.089203 
	C784.782776,409.717651 798.456177,410.605835 812.661255,409.273682 
	C825.095703,408.107605 836.847290,405.415833 848.909729,399.995728 
M1011.111389,280.490234 
	C1006.431946,268.161835 997.236084,260.478455 984.886719,257.258575 
	C976.874939,255.169693 968.383423,254.550934 960.061890,254.096725 
	C942.323975,253.128525 927.520203,259.972565 914.711914,272.691833 
	C913.648743,267.061401 912.634521,261.690155 911.638916,256.417542 
	C903.975159,256.417542 896.590210,256.417542 889.328613,256.417542 
	C889.328613,306.757965 889.328613,356.680176 889.328613,406.581207 
	C898.373352,406.581207 907.083923,406.581207 916.000000,406.581207 
	C916.000000,382.838104 915.812683,359.510925 916.091919,336.189331 
	C916.204163,326.810516 916.853394,317.376617 918.138245,308.089539 
	C919.611511,297.440735 924.227539,287.886139 934.103149,282.777710 
	C939.739380,279.862244 946.510376,279.021912 952.852722,277.619293 
	C961.422180,275.724182 969.655273,277.671387 977.074097,281.782837 
	C986.298279,286.894867 988.741089,296.325653 988.855347,305.811157 
	C989.236755,337.471588 989.000000,369.139435 989.000000,400.804443 
	C989.000000,402.739807 989.000000,404.675140 989.000000,406.581207 
	C998.373413,406.581207 1007.083984,406.581207 1016.000000,406.581207 
	C1016.000000,404.171204 1016.000000,402.178040 1016.000000,400.184875 
	C1016.000000,370.519745 1015.860474,340.853638 1016.076050,311.190063 
	C1016.151062,300.864258 1015.192505,290.825226 1011.111389,280.490234 
M593.991211,376.522308 
	C586.980591,386.452484 579.969971,396.382660 572.477722,406.994965 
	C582.774353,406.994965 592.076111,407.107758 601.369690,406.882019 
	C602.889771,406.845093 604.820984,405.661346 605.788574,404.409607 
	C608.479614,400.928223 610.697876,397.086273 613.219727,393.468292 
	C623.223694,379.115875 633.272339,364.794586 643.414124,350.305084 
	C644.859741,352.305084 646.140991,354.004974 647.346497,355.756897 
	C658.295471,371.667633 669.179932,387.623383 680.250427,403.449036 
	C681.354309,405.027100 683.532715,406.772339 685.270203,406.834869 
	C694.546997,407.168793 703.842224,406.992279 713.668457,406.992279 
	C712.970886,405.521637 712.641541,404.434692 712.014099,403.562073 
	C695.378967,380.425842 678.784851,357.259247 661.972961,334.251862 
	C659.525574,330.902588 659.963074,328.553131 662.147461,325.514557 
	C677.344360,304.374725 692.441284,283.162964 707.561096,261.967712 
	C708.794739,260.238342 709.958923,258.459473 711.632629,256.003082 
	C701.259888,256.003082 692.103210,255.889297 682.955505,256.123474 
	C681.554504,256.159363 679.770020,257.499847 678.884277,258.748657 
	C673.015686,267.022156 667.355774,275.443420 661.604919,283.800751 
	C655.629089,292.484924 649.627258,301.151215 643.465515,310.073364 
	C631.778748,293.075317 620.401428,276.479950 608.942505,259.941071 
	C607.907776,258.447601 606.383728,256.240051 605.024414,256.193695 
	C595.451172,255.867325 585.861572,256.020477 575.495972,256.020477 
	C576.310181,257.775696 576.616638,258.837067 577.222595,259.684082 
	C593.325439,282.190002 609.504578,304.641785 625.467773,327.246094 
	C626.368591,328.521637 626.308960,331.561249 625.393799,332.867004 
	C615.244324,347.348724 604.837341,361.649963 593.991211,376.522308 
M1294.999878,339.500000 
	C1295.333984,352.100800 1295.091064,364.752380 1296.194336,377.285461 
	C1296.999390,386.429169 1301.054321,395.089813 1308.520386,400.595459 
	C1324.872925,412.654022 1343.229126,411.582153 1361.693726,406.481110 
	C1363.113647,406.088837 1364.742554,403.497040 1364.848511,401.836609 
	C1365.229370,395.870575 1364.997803,389.865448 1364.997803,383.859009 
	C1359.646973,384.695374 1354.473145,385.223022 1349.431519,386.344757 
	C1334.249146,389.722870 1322.008423,380.089600 1322.002808,364.526917 
	C1321.993164,337.529297 1322.000000,310.531647 1322.000000,283.534027 
	C1322.000000,281.781372 1322.000000,280.028717 1322.000000,277.844452 
	C1336.361084,277.844452 1349.956543,277.844452 1363.611816,277.844452 
	C1363.611816,270.355743 1363.611816,263.313171 1363.611816,255.839432 
	C1349.633789,255.839432 1336.038452,255.839432 1321.837646,255.839432 
	C1321.837646,244.691284 1321.837646,233.971573 1321.837646,223.216888 
	C1315.591675,223.216888 1309.965332,223.216888 1304.427368,223.216888 
	C1301.588623,232.668884 1298.935181,241.937012 1295.937622,251.092392 
	C1295.388794,252.768341 1293.702026,254.514236 1292.087646,255.316788 
	C1286.966187,257.862823 1281.595947,259.904053 1276.407593,262.323914 
	C1275.412354,262.788055 1274.182739,264.048523 1274.126831,265.003937 
	C1273.879028,269.240845 1274.019409,273.500458 1274.019409,278.176392 
	C1281.384033,278.176392 1287.980103,278.176392 1295.000000,278.176392 
	C1295.000000,298.576721 1295.000000,318.538361 1294.999878,339.500000 
M1224.000000,362.500000 
	C1224.000000,377.249725 1224.000000,391.999481 1224.000000,406.690063 
	C1233.388428,406.690063 1241.979980,406.690063 1250.603271,406.690063 
	C1250.603271,356.339844 1250.603271,306.300629 1250.603271,256.309937 
	C1241.611816,256.309937 1233.020264,256.309937 1224.000000,256.309937 
	C1224.000000,291.578705 1224.000000,326.539368 1224.000000,362.500000 
M1230.937012,234.982819 
	C1234.964966,235.148163 1239.221191,236.237595 1242.979248,235.309830 
	C1255.487305,232.221970 1255.333862,213.517136 1249.356201,206.939743 
	C1247.961426,205.404953 1246.149536,203.992584 1244.246826,203.220947 
	C1236.573242,200.108948 1227.347046,203.152802 1224.183960,209.536316 
	C1219.442627,219.104950 1223.165161,231.972549 1230.937012,234.982819 
z"/>
<path fill="#446CB3" opacity="1.000000" stroke="none" 
	d="
M384.723206,178.069855 
	C391.242035,166.359879 397.760925,154.649902 404.801971,142.001892 
	C407.798767,146.683167 410.457886,150.486694 412.762177,154.494232 
	C426.149261,177.776581 439.404053,201.135010 452.798523,224.413055 
	C466.026398,247.401581 479.377045,270.319458 492.652954,293.280365 
	C497.570587,301.785522 502.532410,310.269135 507.193695,318.913727 
	C507.834473,320.101990 507.307007,322.424805 506.543274,323.786560 
	C499.895203,335.640839 493.103210,347.414948 486.289001,359.175232 
	C476.930023,375.327362 467.493683,391.434692 458.128845,407.583496 
	C448.602814,424.010254 439.091034,440.445526 429.633942,456.912079 
	C422.620636,469.123535 415.602295,481.334564 408.808990,493.668488 
	C406.823090,497.274170 404.768463,499.167419 400.182953,499.128845 
	C370.370178,498.877869 340.554260,499.000000 310.739349,499.000000 
	C309.108643,499.000000 307.477936,499.000000 304.840668,499.000000 
	C309.146851,491.385284 313.056000,484.437164 317.004181,477.511261 
	C318.299805,475.238525 320.085449,473.166321 320.971680,470.754303 
	C323.282074,464.466217 327.308044,462.564056 334.080048,462.807343 
	C350.381561,463.393005 366.718903,462.982025 383.841492,462.861328 
	C389.395172,454.991394 394.316925,447.329132 398.835358,439.435974 
	C401.249634,435.218506 402.968018,430.602692 405.000427,426.166656 
	C412.325562,413.812134 419.717651,401.496735 426.959198,389.093475 
	C436.440582,372.853882 445.809509,356.548676 455.212952,340.263702 
	C458.403656,334.738037 461.770966,329.295502 464.577728,323.579346 
	C465.349609,322.007355 465.037659,319.217743 464.126495,317.607269 
	C449.871674,292.412262 435.431335,267.322266 421.046570,242.200775 
	C415.930237,233.265671 410.848145,224.310944 405.374207,214.827850 
	C404.213287,212.658279 403.521729,210.973099 402.628845,209.402344 
	C396.684326,198.944534 390.696777,188.511169 384.723206,178.069855 
z"/>
<path fill="#446CB3" opacity="1.000000" stroke="none" 
	d="
M240.166199,215.000336 
	C222.469025,245.571899 204.772629,276.143921 187.073639,306.714447 
	C184.863358,310.532135 182.410721,314.234650 180.545212,318.213196 
	C179.889465,319.611664 180.088593,321.994965 180.865417,323.389282 
	C187.390442,335.100586 194.123093,346.696533 200.827316,358.307526 
	C209.169739,372.755707 217.559814,387.176331 225.899536,401.626068 
	C230.633865,409.828979 235.308655,418.066223 240.047852,427.002502 
	C241.384430,430.170074 242.585449,432.681305 243.999588,435.066132 
	C249.597977,444.507202 255.263092,453.908661 260.903473,463.324829 
	C256.631317,471.018616 252.386627,478.727814 248.076035,486.399994 
	C245.760025,490.522125 243.330872,494.580688 240.462570,499.510437 
	C236.397446,492.537415 232.662674,486.151489 228.947205,479.754333 
	C212.993622,452.285950 196.987686,424.847748 181.113571,397.333496 
	C167.694183,374.073975 154.587357,350.632324 140.970078,327.490234 
	C138.095627,322.605194 137.557114,319.253021 140.773209,314.069153 
	C150.692413,298.080780 159.789963,281.582581 169.202957,265.280273 
	C178.454895,249.256912 187.701584,233.230515 196.951797,217.206161 
	C206.363144,200.902725 215.787781,184.606949 225.182892,168.294174 
	C229.513657,160.774643 233.723206,153.184128 238.154938,145.725143 
	C238.854080,144.548386 240.438858,143.125015 241.619797,143.119919 
	C274.251373,142.978989 306.883698,143.007034 340.409912,143.007034 
	C337.368439,148.494965 334.692841,153.453903 331.892670,158.341492 
	C328.556091,164.165283 324.922333,169.827759 321.801910,175.762344 
	C320.400238,178.428223 318.675171,179.061844 315.916199,179.048370 
	C298.263245,178.962173 280.609650,179.018356 262.134033,178.978088 
	C260.342560,179.714462 259.045715,180.308914 258.456360,181.317001 
	C254.123489,188.728226 249.861145,196.183151 245.726456,203.706680 
	C243.707550,207.380280 242.009491,211.230225 240.166199,215.000336 
z"/>
<path fill="#446CB3" opacity="1.000000" stroke="none" 
	d="
M1157.994751,396.420166 
	C1157.590454,394.597626 1157.189697,393.186157 1156.686523,391.413727 
	C1153.114502,394.432922 1149.928101,397.771179 1146.155640,400.198120 
	C1132.944702,408.697021 1118.515137,411.283142 1102.899780,409.222748 
	C1093.623779,407.998749 1084.891479,405.793640 1077.160156,400.538818 
	C1063.884277,391.515503 1055.745117,378.660614 1052.308228,363.309113 
	C1047.016357,339.672668 1046.646973,315.958557 1054.995361,292.756195 
	C1063.230713,269.868195 1083.227539,253.685959 1108.826660,253.887802 
	C1119.158081,253.969284 1129.333740,254.442596 1138.628540,259.143005 
	C1144.551025,262.138062 1149.894409,266.278015 1155.497681,269.904816 
	C1155.497681,245.358307 1155.497681,220.467499 1155.497681,195.289032 
	C1164.060913,195.289032 1172.647705,195.289032 1181.618774,195.289032 
	C1181.618774,265.635162 1181.618774,335.977417 1181.618774,406.660156 
	C1174.244751,406.660156 1166.862183,406.660156 1159.323486,406.660156 
	C1158.868896,403.288544 1158.433594,400.059875 1157.994751,396.420166 
M1077.873413,348.686218 
	C1078.258057,351.279144 1078.316040,353.973785 1079.086060,356.446686 
	C1081.877686,365.411591 1085.013672,374.159027 1093.131714,380.074249 
	C1103.278320,387.467682 1114.702881,387.129578 1126.074463,385.297241 
	C1135.360840,383.800903 1143.320557,379.551636 1148.163452,370.624939 
	C1152.582886,362.478607 1154.534546,353.693848 1154.839233,344.720428 
	C1155.192505,334.315704 1155.032227,323.785248 1153.795044,313.465179 
	C1152.545044,303.038422 1149.757446,292.831116 1141.051270,285.485779 
	C1135.583008,280.872345 1129.243774,278.811676 1122.332764,277.626434 
	C1104.475098,274.563782 1088.659668,281.985352 1081.900513,299.934052 
	C1076.014404,315.564728 1075.700195,331.614868 1077.873413,348.686218 
z"/>
<path fill="#446CB3" opacity="1.000000" stroke="none" 
	d="
M848.533997,400.177185 
	C836.847290,405.415833 825.095703,408.107605 812.661255,409.273682 
	C798.456177,410.605835 784.782776,409.717651 771.371216,405.089203 
	C753.317627,398.858734 741.019714,386.424286 734.122864,368.850281 
	C727.741760,352.590546 726.977112,335.679474 728.828186,318.363373 
	C730.438843,303.295807 735.074829,289.670654 744.012756,277.459442 
	C752.546814,265.800049 763.963562,258.493958 777.984253,255.566483 
	C793.809387,252.262283 809.629700,252.600769 824.217896,260.194153 
	C840.636963,268.740479 850.692139,282.839905 853.801880,300.962372 
	C855.850769,312.902649 855.900757,325.185974 856.885986,337.830383 
	C822.635254,337.830383 789.722046,337.830383 756.274841,337.830383 
	C755.446716,346.786102 757.721680,354.829987 761.235596,362.278534 
	C767.665649,375.908936 778.559875,383.442535 793.876709,385.133331 
	C811.376282,387.065063 827.668823,382.965271 843.775513,377.047028 
	C844.545044,376.764282 845.261475,376.330139 846.038452,376.076233 
	C847.106934,375.727142 848.209534,375.482758 850.476318,374.880096 
	C849.934204,383.570984 849.421936,391.783356 848.533997,400.177185 
M782.500000,315.000000 
	C797.590759,315.000000 812.681580,315.000000 827.797302,315.000000 
	C826.429688,288.709564 813.234436,275.399170 790.234924,277.127502 
	C768.867065,278.733246 757.486755,297.996521 757.605408,315.000000 
	C765.565918,315.000000 773.532959,315.000000 782.500000,315.000000 
z"/>
<path fill="#D24D57" opacity="1.000000" stroke="none" 
	d="
M261.207947,463.119324 
	C255.263092,453.908661 249.597977,444.507202 243.999588,435.066132 
	C242.585449,432.681305 241.384430,430.170074 240.126053,427.358459 
	C253.099838,404.724304 266.024628,382.443756 278.968353,360.174194 
	C295.617493,331.529449 312.348114,302.931854 328.920563,274.242859 
	C344.678192,246.964462 360.268036,219.589218 375.955078,192.270004 
	C378.627838,187.615356 381.418579,183.028458 384.439026,178.240051 
	C390.696777,188.511169 396.684326,198.944534 402.628845,209.402344 
	C403.521729,210.973099 404.213287,212.658279 405.082275,214.645294 
	C399.124420,225.270477 393.028748,235.509842 387.051971,245.818146 
	C376.733826,263.614105 366.500336,281.459137 356.211121,299.271881 
	C346.819763,315.530212 337.404388,331.774689 327.994507,348.022308 
	C318.584412,364.270294 309.159485,380.509674 299.756866,396.761963 
	C290.515442,412.735565 281.295959,428.721893 272.062500,444.700165 
	C268.552002,450.774963 265.029449,456.842773 261.207947,463.119324 
z"/>
<path fill="#446CB3" opacity="1.000000" stroke="none" 
	d="
M1011.349365,280.801514 
	C1015.192505,290.825226 1016.151062,300.864258 1016.076050,311.190063 
	C1015.860474,340.853638 1016.000000,370.519745 1016.000000,400.184875 
	C1016.000000,402.178040 1016.000000,404.171204 1016.000000,406.581207 
	C1007.083984,406.581207 998.373413,406.581207 989.000000,406.581207 
	C989.000000,404.675140 989.000000,402.739807 989.000000,400.804443 
	C989.000000,369.139435 989.236755,337.471588 988.855347,305.811157 
	C988.741089,296.325653 986.298279,286.894867 977.074097,281.782837 
	C969.655273,277.671387 961.422180,275.724182 952.852722,277.619293 
	C946.510376,279.021912 939.739380,279.862244 934.103149,282.777710 
	C924.227539,287.886139 919.611511,297.440735 918.138245,308.089539 
	C916.853394,317.376617 916.204163,326.810516 916.091919,336.189331 
	C915.812683,359.510925 916.000000,382.838104 916.000000,406.581207 
	C907.083923,406.581207 898.373352,406.581207 889.328613,406.581207 
	C889.328613,356.680176 889.328613,306.757965 889.328613,256.417542 
	C896.590210,256.417542 903.975159,256.417542 911.638916,256.417542 
	C912.634521,261.690155 913.648743,267.061401 914.711914,272.691833 
	C927.520203,259.972565 942.323975,253.128525 960.061890,254.096725 
	C968.383423,254.550934 976.874939,255.169693 984.886719,257.258575 
	C997.236084,260.478455 1006.431946,268.161835 1011.349365,280.801514 
z"/>
<path fill="#446CB3" opacity="1.000000" stroke="none" 
	d="
M594.245605,376.261169 
	C604.837341,361.649963 615.244324,347.348724 625.393799,332.867004 
	C626.308960,331.561249 626.368591,328.521637 625.467773,327.246094 
	C609.504578,304.641785 593.325439,282.190002 577.222595,259.684082 
	C576.616638,258.837067 576.310181,257.775696 575.495972,256.020477 
	C585.861572,256.020477 595.451172,255.867325 605.024414,256.193695 
	C606.383728,256.240051 607.907776,258.447601 608.942505,259.941071 
	C620.401428,276.479950 631.778748,293.075317 643.465515,310.073364 
	C649.627258,301.151215 655.629089,292.484924 661.604919,283.800751 
	C667.355774,275.443420 673.015686,267.022156 678.884277,258.748657 
	C679.770020,257.499847 681.554504,256.159363 682.955505,256.123474 
	C692.103210,255.889297 701.259888,256.003082 711.632629,256.003082 
	C709.958923,258.459473 708.794739,260.238342 707.561096,261.967712 
	C692.441284,283.162964 677.344360,304.374725 662.147461,325.514557 
	C659.963074,328.553131 659.525574,330.902588 661.972961,334.251862 
	C678.784851,357.259247 695.378967,380.425842 712.014099,403.562073 
	C712.641541,404.434692 712.970886,405.521637 713.668457,406.992279 
	C703.842224,406.992279 694.546997,407.168793 685.270203,406.834869 
	C683.532715,406.772339 681.354309,405.027100 680.250427,403.449036 
	C669.179932,387.623383 658.295471,371.667633 647.346497,355.756897 
	C646.140991,354.004974 644.859741,352.305084 643.414124,350.305084 
	C633.272339,364.794586 623.223694,379.115875 613.219727,393.468292 
	C610.697876,397.086273 608.479614,400.928223 605.788574,404.409607 
	C604.820984,405.661346 602.889771,406.845093 601.369690,406.882019 
	C592.076111,407.107758 582.774353,406.994965 572.477722,406.994965 
	C579.969971,396.382660 586.980591,386.452484 594.245605,376.261169 
z"/>
<path fill="#446CB3" opacity="1.000000" stroke="none" 
	d="
M1295.000000,339.000000 
	C1295.000000,318.538361 1295.000000,298.576721 1295.000000,278.176392 
	C1287.980103,278.176392 1281.384033,278.176392 1274.019409,278.176392 
	C1274.019409,273.500458 1273.879028,269.240845 1274.126831,265.003937 
	C1274.182739,264.048523 1275.412354,262.788055 1276.407593,262.323914 
	C1281.595947,259.904053 1286.966187,257.862823 1292.087646,255.316788 
	C1293.702026,254.514236 1295.388794,252.768341 1295.937622,251.092392 
	C1298.935181,241.937012 1301.588623,232.668884 1304.427368,223.216888 
	C1309.965332,223.216888 1315.591675,223.216888 1321.837646,223.216888 
	C1321.837646,233.971573 1321.837646,244.691284 1321.837646,255.839432 
	C1336.038452,255.839432 1349.633789,255.839432 1363.611816,255.839432 
	C1363.611816,263.313171 1363.611816,270.355743 1363.611816,277.844452 
	C1349.956543,277.844452 1336.361084,277.844452 1322.000000,277.844452 
	C1322.000000,280.028717 1322.000000,281.781372 1322.000000,283.534027 
	C1322.000000,310.531647 1321.993164,337.529297 1322.002808,364.526917 
	C1322.008423,380.089600 1334.249146,389.722870 1349.431519,386.344757 
	C1354.473145,385.223022 1359.646973,384.695374 1364.997803,383.859009 
	C1364.997803,389.865448 1365.229370,395.870575 1364.848511,401.836609 
	C1364.742554,403.497040 1363.113647,406.088837 1361.693726,406.481110 
	C1343.229126,411.582153 1324.872925,412.654022 1308.520386,400.595459 
	C1301.054321,395.089813 1296.999390,386.429169 1296.194336,377.285461 
	C1295.091064,364.752380 1295.333984,352.100800 1295.000000,339.000000 
z"/>
<path fill="#446CB3" opacity="1.000000" stroke="none" 
	d="
M1224.000000,362.000000 
	C1224.000000,326.539368 1224.000000,291.578705 1224.000000,256.309937 
	C1233.020264,256.309937 1241.611816,256.309937 1250.603271,256.309937 
	C1250.603271,306.300629 1250.603271,356.339844 1250.603271,406.690063 
	C1241.979980,406.690063 1233.388428,406.690063 1224.000000,406.690063 
	C1224.000000,391.999481 1224.000000,377.249725 1224.000000,362.000000 
z"/>
<path fill="#D24D57" opacity="1.000000" stroke="none" 
	d="
M404.682617,426.004181 
	C402.968018,430.602692 401.249634,435.218506 398.835358,439.435974 
	C394.316925,447.329132 389.395172,454.991394 384.305847,462.810486 
	C377.017944,451.053802 370.069214,439.234009 363.110260,427.420197 
	C361.206207,424.187836 359.265503,420.977112 357.352783,417.749817 
	C355.357452,414.383118 354.284302,411.347137 356.806274,407.335541 
	C363.039093,397.421265 368.706207,387.151306 375.228546,375.945587 
	C385.219635,393.055481 394.792175,409.448608 404.682617,426.004181 
z"/>
<path fill="#D24D57" opacity="1.000000" stroke="none" 
	d="
M240.473221,215.148514 
	C242.009491,211.230225 243.707550,207.380280 245.726456,203.706680 
	C249.861145,196.183151 254.123489,188.728226 258.456360,181.317001 
	C259.045715,180.308914 260.342560,179.714462 261.669678,179.030304 
	C270.546478,193.802078 279.026611,208.494827 287.609711,223.127167 
	C289.967255,227.146271 290.207611,230.306244 287.314728,234.707718 
	C281.152374,244.083618 276.067535,254.167725 269.912964,265.074829 
	C259.917084,247.995209 250.348663,231.645950 240.473221,215.148514 
z"/>
<path fill="#446CB3" opacity="1.000000" stroke="none" 
	d="
M1230.567505,234.825653 
	C1223.165161,231.972549 1219.442627,219.104950 1224.183960,209.536316 
	C1227.347046,203.152802 1236.573242,200.108948 1244.246826,203.220947 
	C1246.149536,203.992584 1247.961426,205.404953 1249.356201,206.939743 
	C1255.333862,213.517136 1255.487305,232.221970 1242.979248,235.309830 
	C1239.221191,236.237595 1234.964966,235.148163 1230.567505,234.825653 
z"/>
<path fill="none" opacity="0.000000" stroke="none" 
	d="
M1077.647217,348.295044 
	C1075.700195,331.614868 1076.014404,315.564728 1081.900513,299.934052 
	C1088.659668,281.985352 1104.475098,274.563782 1122.332764,277.626434 
	C1129.243774,278.811676 1135.583008,280.872345 1141.051270,285.485779 
	C1149.757446,292.831116 1152.545044,303.038422 1153.795044,313.465179 
	C1155.032227,323.785248 1155.192505,334.315704 1154.839233,344.720428 
	C1154.534546,353.693848 1152.582886,362.478607 1148.163452,370.624939 
	C1143.320557,379.551636 1135.360840,383.800903 1126.074463,385.297241 
	C1114.702881,387.129578 1103.278320,387.467682 1093.131714,380.074249 
	C1085.013672,374.159027 1081.877686,365.411591 1079.086060,356.446686 
	C1078.316040,353.973785 1078.258057,351.279144 1077.647217,348.295044 
z"/>
<path fill="none" opacity="0.000000" stroke="none" 
	d="
M782.000000,315.000000 
	C773.532959,315.000000 765.565918,315.000000 757.605408,315.000000 
	C757.486755,297.996521 768.867065,278.733246 790.234924,277.127502 
	C813.234436,275.399170 826.429688,288.709564 827.797302,315.000000 
	C812.681580,315.000000 797.590759,315.000000 782.000000,315.000000 
z"/>
</svg>
